<mxfile host="app.diagrams.net" modified="2024-04-29T00:33:52.796Z" agent="Mozilla/5.0 (Windows NT 10.0; Win64; x64) AppleWebKit/537.36 (KHTML, like Gecko) Chrome/124.0.0.0 Safari/537.36" etag="G6yy4vfjArc9nNJEwRyb" version="24.2.7" type="device">
  <diagram name="페이지-1" id="HvDYtwdOGoUY-Ebe9wlU">
    <mxGraphModel dx="1483" dy="795" grid="0" gridSize="10" guides="1" tooltips="1" connect="1" arrows="1" fold="1" page="0" pageScale="1" pageWidth="827" pageHeight="1169" math="0" shadow="0">
      <root>
        <mxCell id="0" />
        <mxCell id="1" parent="0" />
        <mxCell id="k0_Q2JnuOHdiqGFjM_5H-2" value="AWS" style="swimlane;whiteSpace=wrap;html=1;" vertex="1" parent="1">
          <mxGeometry x="-447" y="-88" width="188" height="226" as="geometry" />
        </mxCell>
        <mxCell id="k0_Q2JnuOHdiqGFjM_5H-4" value="Region : 지역" style="swimlane;whiteSpace=wrap;html=1;" vertex="1" parent="k0_Q2JnuOHdiqGFjM_5H-2">
          <mxGeometry x="28" y="48" width="138" height="160" as="geometry" />
        </mxCell>
        <mxCell id="k0_Q2JnuOHdiqGFjM_5H-3" value="VPC" style="swimlane;whiteSpace=wrap;html=1;" vertex="1" parent="k0_Q2JnuOHdiqGFjM_5H-4">
          <mxGeometry x="19" y="38" width="98" height="108" as="geometry" />
        </mxCell>
        <mxCell id="k0_Q2JnuOHdiqGFjM_5H-7" value="VPC" style="swimlane;whiteSpace=wrap;html=1;" vertex="1" parent="1">
          <mxGeometry x="-209" y="-84" width="401" height="231" as="geometry" />
        </mxCell>
        <mxCell id="k0_Q2JnuOHdiqGFjM_5H-9" value="Subnet 1 : Private" style="swimlane;whiteSpace=wrap;html=1;" vertex="1" parent="k0_Q2JnuOHdiqGFjM_5H-7">
          <mxGeometry x="14" y="35" width="117" height="180" as="geometry" />
        </mxCell>
        <mxCell id="k0_Q2JnuOHdiqGFjM_5H-21" value="EC2" style="rounded=0;whiteSpace=wrap;html=1;" vertex="1" parent="k0_Q2JnuOHdiqGFjM_5H-9">
          <mxGeometry x="17" y="40" width="83" height="44" as="geometry" />
        </mxCell>
        <mxCell id="k0_Q2JnuOHdiqGFjM_5H-22" value="EC2(DB)" style="rounded=0;whiteSpace=wrap;html=1;" vertex="1" parent="k0_Q2JnuOHdiqGFjM_5H-9">
          <mxGeometry x="17" y="99" width="83" height="44" as="geometry" />
        </mxCell>
        <mxCell id="k0_Q2JnuOHdiqGFjM_5H-18" style="edgeStyle=none;curved=1;rounded=0;orthogonalLoop=1;jettySize=auto;html=1;entryX=0.5;entryY=0;entryDx=0;entryDy=0;fontSize=12;startSize=8;endSize=8;" edge="1" parent="k0_Q2JnuOHdiqGFjM_5H-7" source="k0_Q2JnuOHdiqGFjM_5H-14" target="k0_Q2JnuOHdiqGFjM_5H-17">
          <mxGeometry relative="1" as="geometry" />
        </mxCell>
        <mxCell id="k0_Q2JnuOHdiqGFjM_5H-14" value="게이트웨이&lt;div&gt;Gateway&lt;/div&gt;" style="rounded=1;whiteSpace=wrap;html=1;" vertex="1" parent="k0_Q2JnuOHdiqGFjM_5H-7">
          <mxGeometry x="153.5" y="35" width="94" height="58" as="geometry" />
        </mxCell>
        <mxCell id="k0_Q2JnuOHdiqGFjM_5H-10" value="Subnet 2 : Public" style="swimlane;whiteSpace=wrap;html=1;" vertex="1" parent="k0_Q2JnuOHdiqGFjM_5H-7">
          <mxGeometry x="266" y="35" width="117" height="179" as="geometry" />
        </mxCell>
        <mxCell id="k0_Q2JnuOHdiqGFjM_5H-23" value="EC2(server)" style="rounded=0;whiteSpace=wrap;html=1;" vertex="1" parent="k0_Q2JnuOHdiqGFjM_5H-10">
          <mxGeometry x="17" y="40" width="83" height="44" as="geometry" />
        </mxCell>
        <mxCell id="k0_Q2JnuOHdiqGFjM_5H-24" value="EC2(server)" style="rounded=0;whiteSpace=wrap;html=1;" vertex="1" parent="k0_Q2JnuOHdiqGFjM_5H-10">
          <mxGeometry x="17" y="99" width="83" height="44" as="geometry" />
        </mxCell>
        <mxCell id="k0_Q2JnuOHdiqGFjM_5H-20" style="edgeStyle=none;curved=1;rounded=0;orthogonalLoop=1;jettySize=auto;html=1;exitX=1;exitY=0.5;exitDx=0;exitDy=0;entryX=0;entryY=0.5;entryDx=0;entryDy=0;fontSize=12;startSize=8;endSize=8;" edge="1" parent="k0_Q2JnuOHdiqGFjM_5H-7" source="k0_Q2JnuOHdiqGFjM_5H-17" target="k0_Q2JnuOHdiqGFjM_5H-23">
          <mxGeometry relative="1" as="geometry" />
        </mxCell>
        <mxCell id="k0_Q2JnuOHdiqGFjM_5H-26" style="edgeStyle=none;curved=1;rounded=0;orthogonalLoop=1;jettySize=auto;html=1;entryX=1;entryY=0.5;entryDx=0;entryDy=0;fontSize=12;startSize=8;endSize=8;fillColor=#f8cecc;strokeColor=#b85450;exitX=0;exitY=0.5;exitDx=0;exitDy=0;" edge="1" parent="k0_Q2JnuOHdiqGFjM_5H-7" source="k0_Q2JnuOHdiqGFjM_5H-17" target="k0_Q2JnuOHdiqGFjM_5H-22">
          <mxGeometry relative="1" as="geometry" />
        </mxCell>
        <mxCell id="k0_Q2JnuOHdiqGFjM_5H-27" style="edgeStyle=none;curved=1;rounded=0;orthogonalLoop=1;jettySize=auto;html=1;exitX=1;exitY=0.5;exitDx=0;exitDy=0;entryX=0;entryY=0.5;entryDx=0;entryDy=0;fontSize=12;startSize=8;endSize=8;" edge="1" parent="k0_Q2JnuOHdiqGFjM_5H-7" source="k0_Q2JnuOHdiqGFjM_5H-17" target="k0_Q2JnuOHdiqGFjM_5H-24">
          <mxGeometry relative="1" as="geometry" />
        </mxCell>
        <mxCell id="k0_Q2JnuOHdiqGFjM_5H-17" value="&lt;div&gt;가상&amp;nbsp;&lt;span style=&quot;background-color: initial;&quot;&gt;라우터&lt;/span&gt;&lt;/div&gt;" style="rounded=1;whiteSpace=wrap;html=1;" vertex="1" parent="k0_Q2JnuOHdiqGFjM_5H-7">
          <mxGeometry x="153.5" y="134" width="94" height="58" as="geometry" />
        </mxCell>
        <mxCell id="k0_Q2JnuOHdiqGFjM_5H-28" style="edgeStyle=orthogonalEdgeStyle;rounded=0;orthogonalLoop=1;jettySize=auto;html=1;exitX=1;exitY=0.5;exitDx=0;exitDy=0;entryX=0.5;entryY=1;entryDx=0;entryDy=0;fontSize=12;startSize=8;endSize=8;fillColor=#dae8fc;strokeColor=#6c8ebf;" edge="1" parent="k0_Q2JnuOHdiqGFjM_5H-7" source="k0_Q2JnuOHdiqGFjM_5H-23" target="k0_Q2JnuOHdiqGFjM_5H-22">
          <mxGeometry relative="1" as="geometry">
            <Array as="points">
              <mxPoint x="386" y="97" />
              <mxPoint x="386" y="198" />
              <mxPoint x="73" y="198" />
              <mxPoint x="73" y="178" />
            </Array>
          </mxGeometry>
        </mxCell>
        <mxCell id="k0_Q2JnuOHdiqGFjM_5H-29" style="edgeStyle=orthogonalEdgeStyle;rounded=0;orthogonalLoop=1;jettySize=auto;html=1;exitX=1;exitY=0.5;exitDx=0;exitDy=0;fontSize=12;startSize=8;endSize=8;entryX=0.5;entryY=1;entryDx=0;entryDy=0;fillColor=#dae8fc;strokeColor=#6c8ebf;" edge="1" parent="k0_Q2JnuOHdiqGFjM_5H-7" source="k0_Q2JnuOHdiqGFjM_5H-24" target="k0_Q2JnuOHdiqGFjM_5H-22">
          <mxGeometry relative="1" as="geometry">
            <mxPoint x="112.19047619047615" y="156.1428571428571" as="targetPoint" />
            <Array as="points">
              <mxPoint x="386" y="156" />
              <mxPoint x="386" y="198" />
              <mxPoint x="73" y="198" />
              <mxPoint x="73" y="178" />
            </Array>
          </mxGeometry>
        </mxCell>
        <mxCell id="k0_Q2JnuOHdiqGFjM_5H-8" style="edgeStyle=none;curved=1;rounded=0;orthogonalLoop=1;jettySize=auto;html=1;exitX=1;exitY=0.5;exitDx=0;exitDy=0;entryX=0;entryY=0.5;entryDx=0;entryDy=0;fontSize=12;startSize=8;endSize=8;" edge="1" parent="1" source="k0_Q2JnuOHdiqGFjM_5H-3" target="k0_Q2JnuOHdiqGFjM_5H-7">
          <mxGeometry relative="1" as="geometry" />
        </mxCell>
        <mxCell id="k0_Q2JnuOHdiqGFjM_5H-12" style="edgeStyle=none;curved=1;rounded=0;orthogonalLoop=1;jettySize=auto;html=1;exitX=0.5;exitY=1;exitDx=0;exitDy=0;entryX=0.5;entryY=0;entryDx=0;entryDy=0;fontSize=12;startSize=8;endSize=8;" edge="1" parent="1" source="k0_Q2JnuOHdiqGFjM_5H-11" target="k0_Q2JnuOHdiqGFjM_5H-14">
          <mxGeometry relative="1" as="geometry" />
        </mxCell>
        <mxCell id="k0_Q2JnuOHdiqGFjM_5H-11" value="요청" style="rounded=0;whiteSpace=wrap;html=1;" vertex="1" parent="1">
          <mxGeometry x="-68.5" y="-204" width="120" height="60" as="geometry" />
        </mxCell>
      </root>
    </mxGraphModel>
  </diagram>
</mxfile>
